# xmcd CD database file
#
# Track frame offsets:
#	150
#	17870
#	37952
#	53057
#	71585
#	82907
#	104730
#	122012
#	132017
#	146572
#	163895
#	184555
#	199092
#	213877
#	232460
#	258122
#	272692
#	287907
#	304780
#	319582
#	331540
#
# Disc length: 4660 seconds
#
# Revision: 2
# Processed by: cddbd v1.5.1PL0 Copyright (c) Steve Scherf et al.
# Submitted via: CDex 1.51
#
DISCID=2e123215
DTITLE=New Country - Feel It!
DYEAR=1996
DGENRE=Country
TTITLE0=The Business Of Love - Charlie Daniels 
TTITLE1=Life And Times - Steve Grace
TTITLE2=Blessing In Disguise - Ashton, Becker and Dente 
TTITLE3=Life's Railway To Heaven - Russ Taff 
TTITLE4=Creek Don't Rise - Acapella
TTITLE5=With Every Turn Of The World - Michael James
TTITLE6=Janie's Gone Fishin' - Kim Hill 
TTITLE7=Hoedown - Ken Holloway
TTITLE8=Harvest Wind - Marty Raybon
TTITLE9=Home - Mercy River
TTITLE10=Satellite Sky - Kate Taylor
TTITLE11=Castaway - Bruce Carroll 
TTITLE12=Love Comes Through - Mid South
TTITLE13=Jackson Finch - It's a hard life wherever you go
TTITLE14=Seize The Day - Carolyn Arends 
TTITLE15=Bad Indegestion - Lost Dogs
TTITLE16=The Comeback Kid - Brian Barret
TTITLE17=Elvis Has Left The Building ... - Mercy River
TTITLE18=Precious Memories - Lost Dogs
TTITLE19=Watch The Run - Andy Landis
TTITLE20=Burning Town - Steve Grace
EXTD=YEAR: 1996
EXTT0=
EXTT1=
EXTT2=
EXTT3=
EXTT4=
EXTT5=
EXTT6=
EXTT7=
EXTT8=
EXTT9=
EXTT10=
EXTT11=
EXTT12=
EXTT13=
EXTT14=
EXTT15=
EXTT16=
EXTT17=
EXTT18=
EXTT19=
EXTT20=
PLAYORDER=
